<?xml version="1.0" encoding="UTF-8"?>
<!DOCTYPE svg PUBLIC "-//W3C//DTD SVG 1.1//EN" "http://www.w3.org/Graphics/SVG/1.1/DTD/svg11.dtd">
<!-- Creator: CorelDRAW X7 -->
<svg xmlns="http://www.w3.org/2000/svg" xml:space="preserve" width="0.666661in" height="0.666661in" version="1.1" style="shape-rendering:geometricPrecision; text-rendering:geometricPrecision; image-rendering:optimizeQuality; fill-rule:evenodd; clip-rule:evenodd"
viewBox="0 0 667 667"
 xmlns:xlink="http://www.w3.org/1999/xlink">
 <defs>
  <style type="text/css">
   <![CDATA[
    .str0 {stroke:black;stroke-width:16.6654}
    .str2 {stroke:black;stroke-width:6.94488}
    .str1 {stroke:black;stroke-width:10}
    .fil0 {fill:none}
    .fil1 {fill:black}
   ]]>
  </style>
 </defs>
 <g id="Layer_x0020_1">
  <metadata id="CorelCorpID_0Corel-Layer"/>
  <path class="fil0 str0" d="M162 343c8,0 -36,-216 171,-216 189,0 168,216 168,216"/>
  <path class="fil0 str1" d="M155 415c36,66 70,100 130,108"/>
  <path class="fil1 str2" d="M498 323c41,0 75,0 74,58 -2,58 -33,59 -74,59 0,0 -1,0 -2,0l0 -117c1,0 2,0 2,0z"/>
  <rect class="fil1" x="270" y="507" width="56.6654" height="33.3307" rx="17" ry="17"/>
  <path class="fil1 str2" d="M169 323c-40,0 -75,0 -73,58 1,58 33,59 73,59 1,0 1,0 2,0l0 -117c-1,0 -1,0 -2,0z"/>
 </g>
</svg>
